<?xml version="1.0" encoding="UTF-8" standalone="no"?>
<svg
   viewBox="0 0 500 500"
   width="500"
   height="500"
   version="1.1"
   id="svg3"
   sodipodi:docname="aa-icon-mark_arch.svg"
   inkscape:version="1.4.3 (0d15f75, 2025-12-25)"
   xmlns:inkscape="http://www.inkscape.org/namespaces/inkscape"
   xmlns:sodipodi="http://sodipodi.sourceforge.net/DTD/sodipodi-0.dtd"
   xmlns:xlink="http://www.w3.org/1999/xlink"
   xmlns="http://www.w3.org/2000/svg"
   xmlns:svg="http://www.w3.org/2000/svg"
   xmlns:rdf="http://www.w3.org/1999/02/22-rdf-syntax-ns#"
   xmlns:cc="http://creativecommons.org/ns#"
   xmlns:dc="http://purl.org/dc/elements/1.1/">
  <defs
     id="defs3">
    <linearGradient
       id="swatch1"
       inkscape:swatch="solid">
      <stop
         style="stop-color:#000000;stop-opacity:1;"
         offset="0"
         id="stop1" />
    </linearGradient>
    <linearGradient
       inkscape:collect="always"
       xlink:href="#swatch1"
       id="linearGradient1"
       x1="13.592652"
       y1="252.5"
       x2="468.125"
       y2="252.5"
       gradientUnits="userSpaceOnUse" />
  </defs>
  <sodipodi:namedview
     id="namedview3"
     pagecolor="#505050"
     bordercolor="#ffffff"
     borderopacity="1"
     inkscape:showpageshadow="0"
     inkscape:pageopacity="0"
     inkscape:pagecheckerboard="1"
     inkscape:deskcolor="#505050"
     inkscape:zoom="1.1313708"
     inkscape:cx="304.49786"
     inkscape:cy="324.82718"
     inkscape:window-width="1920"
     inkscape:window-height="1009"
     inkscape:window-x="1913"
     inkscape:window-y="-8"
     inkscape:window-maximized="1"
     inkscape:current-layer="g1" />
  <title
     id="title1">Aubyn Architecture — Icon Mark</title>
  <rect
     width="500"
     height="500"
     fill="#ffffff"
     id="rect1"
     x="0"
     y="0" />
  <!--
    Mark anatomy (from image):
    - Bold C-arc sweeping from top-right, around left, to bottom-right
    - Two rectangular tabs on right side: upper-right corner piece, lower-right corner piece
    - Creates the negative space opening in the middle-right
  -->
  <!-- Outer boundary of C shape + right tabs -->
  <!-- Upper right notch tab -->
  <!-- Lower right notch tab -->
  <metadata
     id="metadata1">
    <rdf:RDF>
      <cc:Work
         rdf:about="">
        <dc:title>Aubyn Architecture — Icon Mark</dc:title>
      </cc:Work>
    </rdf:RDF>
  </metadata>
  <g
     id="g1"
     transform="matrix(0,-0.69610799,0.69610799,0,285.80765,471.53776)">
    <g
       id="g3">
      <path
         style="fill:#9dab3a;fill-opacity:1;stroke:url(#linearGradient1);stroke-width:0.75;stroke-dasharray:none"
         d="m 204.375,468.14652 c -7.21875,-1.23473 -17.76451,-3.4439 -23.43504,-4.90923 C 99.57222,442.21072 35.33644,376.48189 18.35666,296.875 12.46104,269.23436 12.06487,245.25759 17.01559,215.71164 30.76848,133.63435 96.80045,63.649401 180.96371,41.948817 209.29977,34.64267 214.1267,34.375 317.54298,34.375 H 411.875 v 27.42303 27.42303 l -95.9375,0.50138 c -91.59459,0.47869 -96.47506,0.6194 -107.8125,3.10829 -35.3443,7.75908 -61.78582,21.4469 -85.82493,44.42843 -26.60919,25.43855 -42.69834,55.5064 -48.60587,90.83598 -3.18803,19.06581 -2.03338,43.17624 3.01177,62.88923 6.81773,26.63905 20.50758,50.99627 40.08108,71.31299 14.51919,15.0705 29.03967,25.73724 46.96295,34.49898 17.00953,8.31505 26.05256,11.47245 43.82586,15.30191 11.95185,2.57517 16.04737,2.69602 107.73664,3.17924 l 95.3125,0.50231 V 279.4524 143.125 h 28.75 28.75 v 163.75 163.75 l -125.3125,-0.11675 c -114.53267,-0.1067 -126.44156,-0.30986 -138.4375,-2.36173 z"
         id="path4"
         transform="matrix(0,1.4365587,-1.4365587,0,677.39168,-410.57947)" />
      <g
         id="g2"
         transform="matrix(1.1173752,0,0,1.1173752,-68.945356,-18.244382)">
        <path
           d="m 157.8425,118.61684 c -2.80236,-0.77492 -5.71833,-0.37076 -8.23764,1.13725 v -1.52103 h -5.64604 v 0.11591 h -0.0989 v 47.90531 h 5.75439 v -35.95801 c 0,-1.01954 0.25027,-2.03171 0.72507,-2.92605 1.50018,-2.7983 4.82896,-3.76031 7.42313,-2.14483 l 0.16174,0.1001 v -6.68645 l -0.0809,-0.0222 z"
           fill="#59595c"
           id="path9-5"
           style="display:inline;stroke-width:0.102811" />
        <path
           d="m 198.37718,153.94419 -0.0746,0.0853 c -0.27598,0.31521 -0.51149,0.57289 -0.74256,0.81114 -6.73308,6.94253 -17.6882,6.94253 -24.42129,0 -3.26188,-3.36324 -5.0582,-7.83436 -5.0582,-12.59091 0,-4.75665 1.79632,-9.22766 5.0582,-12.591 3.26179,-3.36324 7.59791,-5.21544 12.21107,-5.21544 4.61315,0 8.94928,1.8522 12.21105,5.21544 l 0.0792,0.0817 4.17888,-4.30887 0.18251,-0.19747 h -0.22486 c -4.39637,-4.51563 -10.2313,-7.00187 -16.43672,-7.00187 -6.20532,0 -12.06902,2.4983 -16.46903,7.03528 -9.08147,9.36387 -9.08147,24.59974 0,33.96361 4.54121,4.68246 10.50471,7.02323 16.46996,7.02323 5.9635,0 11.92886,-2.34077 16.46821,-7.02227 0.35062,-0.3514 0.67703,-0.72681 1.00239,-1.09945 l 0.0755,-0.0871 -4.51057,-4.10221 z"
           fill="#59595c"
           id="path10-5"
           style="display:inline;stroke-width:0.105119" />
        <path
           d="m 233.10906,119.49086 c -6.36375,0 -12.43109,2.8017 -16.69156,7.69642 V 96.222023 h -5.81445 v 69.919387 h 0.11728 v 0.11287 h 5.70586 v -23.38171 c 0,-9.5585 7.48751,-17.33432 16.69158,-17.33432 9.20397,0 16.69156,7.77582 16.69156,17.33432 v 23.38171 h 5.81446 v -23.38171 c 0,-12.89263 -10.10016,-23.38171 -22.51473,-23.38171 z"
           fill="#59595c"
           id="path11-1"
           style="display:inline;stroke-width:0.101984" />
        <path
           d="m 272.26782,166.25428 v -48.02212 h -6.15254 v 48.02212 z"
           fill="#59595c"
           id="path12-7"
           style="display:inline;stroke-width:0.106309" />
        <path
           d="M 296.07407,119.49086 V 96.222023 h -6.17038 v 23.268837 h -8.92034 v 6.03835 h 8.92034 v 40.72507 h 6.17038 v -40.72507 h 8.92034 v -6.03835 z"
           fill="#59595c"
           id="path13-1"
           style="display:inline;stroke-width:0.105066" />
        <path
           d="m 346.44999,154.02185 c -3.42836,3.83397 -8.36324,6.03274 -13.53868,6.03274 -9.91293,0 -17.98475,-7.92379 -18.04871,-17.68677 h 29.24634 v -6.21078 h -28.15427 c 1.85508,-5.02419 5.83509,-8.91751 10.94289,-10.69457 9.3801,-3.27126 19.71496,1.59539 23.03522,10.84944 l 0.0273,0.0769 h 6.55979 l -0.0385,-0.14452 c -3.35608,-12.81372 -16.65787,-20.5503 -29.65235,-17.25118 -12.9907,3.31022 -20.83711,16.43166 -17.48948,29.24815 2.83244,10.81411 12.74732,18.01306 23.58309,18.01306 2.00461,0 4.04115,-0.24657 6.06915,-0.76199 4.73653,-1.20783 8.94595,-3.7552 12.17315,-7.36759 l 0.078,-0.0872 -4.71585,-4.10188 -0.078,0.0872 z"
           fill="#59595c"
           id="path14-1"
           style="display:inline;stroke-width:0.107472" />
        <path
           d="m 469.99765,118.34806 v -0.1159 h -5.85137 v 41.81196 h -8.50736 c -9.43869,0 -17.11723,-7.98512 -17.11723,-17.8009 v -24.01106 h -5.9618 v 24.01106 c 0,13.23965 10.35772,24.01105 23.08796,24.01105 h 14.47009 v -47.90621 z"
           fill="#59595c"
           id="path17-5"
           style="display:inline;stroke-width:0.104656" />
        <path
           d="M 419.28555,119.49086 V 96.222023 h -6.17039 v 23.268837 h -8.92033 v 6.03835 h 8.92033 v 40.72508 h 6.17039 v -40.72508 h 8.92034 v -6.03835 z"
           fill="#59595c"
           id="path20"
           style="display:inline;stroke-width:0.105066" />
        <path
           d="m 396.58968,153.94419 -0.0746,0.0853 c -0.27599,0.31521 -0.5115,0.57289 -0.74256,0.81114 -6.73308,6.94253 -17.68821,6.94253 -24.42129,0 -3.26188,-3.36324 -5.0582,-7.83436 -5.0582,-12.59091 0,-4.75665 1.79632,-9.22766 5.0582,-12.591 3.26178,-3.36324 7.59791,-5.21544 12.21106,-5.21544 4.61316,0 8.94928,1.8522 12.21106,5.21544 l 0.0792,0.0817 4.17889,-4.30887 0.1825,-0.19747 h -0.22485 c -4.39638,-4.51563 -10.2313,-7.00187 -16.43672,-7.00187 -6.20533,0 -12.06903,2.4983 -16.46904,7.03528 -9.08147,9.36387 -9.08147,24.59974 0,33.96361 4.54121,4.68246 10.50471,7.02323 16.46997,7.02323 5.9635,0 11.92885,-2.34077 16.4682,-7.02227 0.35063,-0.3514 0.67704,-0.72681 1.0024,-1.09945 l 0.0755,-0.0871 -4.51057,-4.10221 z"
           fill="#59595c"
           id="path21"
           style="display:inline;stroke-width:0.105119" />
        <path
           d="m 493.06746,118.61684 c -2.80236,-0.77492 -5.71833,-0.37076 -8.23764,1.13725 v -1.52103 h -5.64603 v 0.11591 h -0.099 v 47.90531 h 5.75439 v -35.95801 c 0,-1.01954 0.25028,-2.03171 0.72507,-2.92605 1.50018,-2.7983 4.82896,-3.76031 7.42313,-2.14483 l 0.16174,0.1001 v -6.68645 l -0.0809,-0.0222 z"
           fill="#59595c"
           id="path22"
           style="display:inline;stroke-width:0.102811" />
        <path
           d="m 534.05155,154.02185 c -3.42836,3.83397 -8.36325,6.03274 -13.53868,6.03274 -9.91293,0 -17.98475,-7.92379 -18.04871,-17.68677 h 29.24634 v -6.21078 h -28.15427 c 1.85508,-5.02419 5.83509,-8.91751 10.94289,-10.69457 9.3801,-3.27126 19.71496,1.59539 23.03522,10.84944 l 0.0273,0.0769 h 6.55979 l -0.0385,-0.14452 c -3.35608,-12.81372 -16.65788,-20.5503 -29.65235,-17.25118 -12.9907,3.31022 -20.83712,16.43166 -17.48949,29.24815 2.83245,10.81411 12.74733,18.01306 23.5831,18.01306 2.00461,0 4.04115,-0.24657 6.06915,-0.76199 4.73652,-1.20783 8.94595,-3.7552 12.17315,-7.36759 l 0.078,-0.0872 -4.71585,-4.10188 -0.078,0.0872 z"
           fill="#59595c"
           id="path23"
           style="display:inline;stroke-width:0.107472" />
      </g>
    </g>
  </g>
</svg>
