<?xml version="1.0" encoding="UTF-8" standalone="no"?>
<svg
   viewBox="0 0 665.6 84.0"
   width="666"
   height="84"
   version="1.1"
   id="svg19"
   sodipodi:docname="aa-lockup-full_2.svg"
   inkscape:version="1.4.3 (0d15f75, 2025-12-25)"
   xmlns:inkscape="http://www.inkscape.org/namespaces/inkscape"
   xmlns:sodipodi="http://sodipodi.sourceforge.net/DTD/sodipodi-0.dtd"
   xmlns:xlink="http://www.w3.org/1999/xlink"
   xmlns="http://www.w3.org/2000/svg"
   xmlns:svg="http://www.w3.org/2000/svg"
   xmlns:rdf="http://www.w3.org/1999/02/22-rdf-syntax-ns#"
   xmlns:cc="http://creativecommons.org/ns#"
   xmlns:dc="http://purl.org/dc/elements/1.1/">
  <defs
     id="defs19">
    <linearGradient
       id="swatch1"
       inkscape:swatch="solid">
      <stop
         style="stop-color:#000000;stop-opacity:1;"
         offset="0"
         id="stop1" />
    </linearGradient>
    <linearGradient
       inkscape:collect="always"
       xlink:href="#swatch1"
       id="linearGradient1"
       x1="196.7707"
       y1="41.048051"
       x2="278.16522"
       y2="41.048051"
       gradientUnits="userSpaceOnUse" />
  </defs>
  <sodipodi:namedview
     id="namedview19"
     pagecolor="#505050"
     bordercolor="#ffffff"
     borderopacity="1"
     inkscape:showpageshadow="0"
     inkscape:pageopacity="0"
     inkscape:pagecheckerboard="1"
     inkscape:deskcolor="#505050"
     showguides="true"
     inkscape:zoom="2.32"
     inkscape:cx="383.40517"
     inkscape:cy="42.025862"
     inkscape:window-width="1920"
     inkscape:window-height="1009"
     inkscape:window-x="1913"
     inkscape:window-y="-8"
     inkscape:window-maximized="1"
     inkscape:current-layer="g27" />
  <title
     id="title1">Aubyn Architecture — Full Lockup (outlined)</title>
  <!-- Aubyn icon mark -->
  <!-- Aubyn -->
  <!-- Architecture -->
  <g
     id="g27">
    <rect
       width="364.33176"
       height="104.14925"
       fill="#ffffff"
       id="rect1"
       x="181.39969"
       y="-9.7318392"
       style="display:inline;stroke-width:0.823816" />
    <path
       d="m 303.98346,61.685624 v 15.985061 h -9.87115 c -5.44309,0 -9.87114,-4.250871 -9.87114,-9.476294 0,-5.225365 4.42805,-9.476291 9.87114,-9.476291 h 9.99964 v -3.301029 h -9.99964 c -7.34179,0 -13.31486,5.734147 -13.31486,12.782264 0,7.048116 5.97307,12.782264 13.31486,12.782264 h 13.31486 V 61.77738 h -3.34813 z"
       fill="#59595c"
       id="path8"
       style="display:none;stroke-width:0.0579867" />
    <path
       d="M 303.98345,21.741048 V 37.72611 h -9.87114 c -5.44309,0 -9.87114,-4.250871 -9.87114,-9.476294 0,-5.225365 4.42805,-9.476292 9.87114,-9.476292 h 9.99963 v -3.301029 h -9.99963 c -7.34179,0 -13.31486,5.734147 -13.31486,12.782264 0,7.048117 5.97307,12.782265 13.31486,12.782265 h 13.31486 V 21.832805 h -3.34814 z"
       fill="#59595c"
       id="path24"
       style="display:none;stroke-width:0.0579867" />
    <g
       id="g2">
      <g
         id="g1"
         transform="matrix(0.75039735,0,0,0.75039735,48.918817,19.351154)">
        <path
           d="m 348.16832,15.659038 h -8.88574 V 3.2718864 h -3.09532 V 34.359906 h 3.09532 V 18.87836 h 8.88574 c 4.8993,0 8.88575,4.139452 8.88575,9.227914 0,5.088408 -3.98597,9.227915 -8.88575,9.227915 l -8.99954,0.0048 -0.10596,3.214508 h 9.1055 c 6.60888,0 11.98569,-5.583853 11.98569,-12.447236 0,-6.863382 -5.37681,-12.447236 -11.98569,-12.447236 z"
           fill="#59595c"
           id="path5"
           style="stroke-width:0.0542905" />
        <path
           d="m 382.96987,15.472495 -4.98317,14.405532 -11.3762,-14.382838 -0.0177,-0.02269 h -4.17303 l 14.29707,18.07626 -6.6183,19.120661 -0.0293,0.08468 h 3.41174 l 12.87572,-37.196921 0.0298,-0.08468 z"
           fill="#59595c"
           id="path6"
           style="stroke-width:0.056602" />
        <path
           d="m 397.3053,15.472495 h -7.8586 v 25.564529 h 3.23831 V 18.778467 h 4.62029 c 5.12614,0 9.29626,4.250869 9.29626,9.476292 v 12.782265 h 3.24316 V 28.254759 c 0,-7.048116 -5.62521,-12.782264 -12.53942,-12.782264 z"
           fill="#59595c"
           id="path7"
           style="stroke-width:0.0562729" />
        <path
           d="m 319.13156,55.621857 c -1.49184,-0.412528 -3.04415,-0.197373 -4.3853,0.605413 v -0.809717 h -3.00566 v 0.0617 h -0.0527 v 25.502346 h 3.06335 V 61.839387 c 0,-0.542747 0.13323,-1.081574 0.38599,-1.557678 0.79862,-1.489671 2.57069,-2.001795 3.9517,-1.141797 l 0.0861,0.05329 v -3.559529 l -0.0431,-0.01182 z"
           fill="#59595c"
           id="path9"
           style="stroke-width:0.0547315" />
        <path
           d="m 340.71016,74.428338 -0.0397,0.0454 c -0.14692,0.167802 -0.27229,0.304975 -0.3953,0.431807 -3.58435,3.695848 -9.4163,3.695848 -13.00065,0 -1.73646,-1.790417 -2.69272,-4.170612 -2.69272,-6.702755 0,-2.5322 0.95626,-4.912339 2.69272,-6.702812 1.73641,-1.790417 4.04474,-2.77643 6.50055,-2.77643 2.45581,0 4.76414,0.986013 6.50054,2.77643 l 0.0422,0.04348 2.22462,-2.293822 0.0972,-0.105126 h -0.1197 c -2.34041,-2.40389 -5.44663,-3.727439 -8.75008,-3.727439 -3.3034,0 -6.42493,1.32997 -8.76727,3.745226 -4.83451,4.984845 -4.83451,13.095647 0,18.080496 2.41751,2.492704 5.59217,3.738806 8.76777,3.738806 3.17466,0 6.35031,-1.246102 8.76683,-3.738297 0.18666,-0.187066 0.36042,-0.386916 0.53363,-0.58529 l 0.0402,-0.04637 -2.4012,-2.18381 z"
           fill="#59595c"
           id="path10"
           style="stroke-width:0.0559602" />
        <path
           d="m 359.19964,56.08714 c -3.38774,0 -6.61768,1.491483 -8.88574,4.09718 V 43.699995 h -3.09531 v 37.221522 h 0.0624 v 0.06008 h 3.03751 V 68.53437 c 0,-5.08846 3.98597,-9.22791 8.88575,-9.22791 4.89972,0 8.88573,4.13945 8.88573,9.22791 v 12.447229 h 3.09532 V 68.53437 c 0,-6.863379 -5.3768,-12.44723 -11.98569,-12.44723 z"
           fill="#59595c"
           id="path11"
           style="stroke-width:0.0542911" />
        <path
           d="M 380.04577,80.981599 V 55.417071 h -3.2753 v 25.564528 z"
           fill="#59595c"
           id="path12"
           style="stroke-width:0.0565935" />
        <path
           d="M 392.719,56.087141 V 43.699995 h -3.2848 v 12.387146 h -4.74873 v 3.214507 h 4.74873 v 21.679951 h 3.2848 V 59.301648 h 4.74873 v -3.214507 z"
           fill="#59595c"
           id="path13"
           style="stroke-width:0.055932" />
        <path
           d="m 419.53657,74.469677 c -1.82508,2.04101 -4.45216,3.211524 -7.2073,3.211524 -5.27714,0 -9.57416,-4.218222 -9.60821,-9.415532 h 15.56926 v -3.306304 h -14.9879 c 0.98755,-2.674625 3.10631,-4.74723 5.82544,-5.693244 4.99349,-1.741451 10.49524,0.849305 12.26278,5.775691 l 0.0145,0.04091 h 3.49209 l -0.0205,-0.07693 c -1.7866,-6.82137 -8.8678,-10.939931 -15.7854,-9.183648 -6.91559,1.762191 -11.09262,8.747375 -9.31051,15.570221 1.50785,5.756881 6.78602,9.589235 12.55444,9.589235 1.06715,0 2.1513,-0.131257 3.23091,-0.405643 2.52148,-0.642987 4.76236,-1.999079 6.48036,-3.922131 l 0.0415,-0.04645 -2.51048,-2.183631 -0.0415,0.04643 z"
           fill="#59595c"
           id="path14"
           style="stroke-width:0.0572123" />
        <path
           d="m 485.30705,55.478772 v -0.0617 h -3.11497 v 22.258557 h -4.52888 c -5.02468,0 -9.11235,-4.25087 -9.11235,-9.476293 V 55.417071 h -3.17375 v 12.782264 c 0,7.048117 5.51392,12.782262 12.29085,12.782262 h 7.70314 V 55.478772 Z"
           fill="#59595c"
           id="path17"
           style="stroke-width:0.0557136" />
        <path
           d="M 458.31051,56.087141 V 43.699995 h -3.28479 v 12.387146 h -4.74874 v 3.214507 h 4.74874 v 21.679956 h 3.28479 V 59.301648 h 4.74874 v -3.214507 z"
           fill="#59595c"
           id="path20"
           style="stroke-width:0.055932" />
        <path
           d="m 446.22839,74.428338 -0.0397,0.0454 c -0.14692,0.167802 -0.27229,0.304975 -0.3953,0.431807 -3.58435,3.695848 -9.4163,3.695848 -13.00065,0 -1.73646,-1.790417 -2.69273,-4.170612 -2.69273,-6.702755 0,-2.5322 0.95627,-4.912339 2.69273,-6.702812 1.73641,-1.790417 4.04474,-2.77643 6.50055,-2.77643 2.45581,0 4.76414,0.986013 6.50054,2.77643 l 0.0422,0.04348 2.22463,-2.293822 0.0971,-0.105126 h -0.1197 c -2.3404,-2.40389 -5.44662,-3.727439 -8.75007,-3.727439 -3.3034,0 -6.42494,1.32997 -8.76728,3.745226 -4.83451,4.984845 -4.83451,13.095647 0,18.080496 2.41751,2.492704 5.59218,3.738806 8.76777,3.738806 3.17467,0 6.35032,-1.246102 8.76684,-3.738297 0.18665,-0.187066 0.36042,-0.386916 0.53362,-0.58529 l 0.0402,-0.04637 -2.4012,-2.18381 z"
           fill="#59595c"
           id="path21"
           style="stroke-width:0.0559602" />
        <path
           d="m 497.58824,55.621857 c -1.49183,-0.412528 -3.04415,-0.197373 -4.3853,0.605413 v -0.809717 h -3.00566 v 0.0617 h -0.0527 v 25.502346 h 3.06334 V 61.839387 c 0,-0.542747 0.13324,-1.081574 0.38599,-1.557678 0.79862,-1.489671 2.57069,-2.001795 3.9517,-1.141797 l 0.0861,0.05329 v -3.559529 l -0.0431,-0.01182 z"
           fill="#59595c"
           id="path22"
           style="stroke-width:0.0547315" />
        <path
           d="m 519.40608,74.469677 c -1.82508,2.04101 -4.45216,3.211524 -7.2073,3.211524 -5.27714,0 -9.57417,-4.218222 -9.60821,-9.415532 h 15.56926 v -3.306304 h -14.9879 c 0.98755,-2.674625 3.1063,-4.74723 5.82544,-5.693244 4.99348,-1.741451 10.49524,0.849305 12.26277,5.775691 l 0.0145,0.04091 h 3.4921 l -0.0205,-0.07693 c -1.78661,-6.82137 -8.86781,-10.939931 -15.7854,-9.183648 -6.91559,1.762191 -11.09262,8.747375 -9.31051,15.570221 1.50785,5.756881 6.78602,9.589235 12.55443,9.589235 1.06716,0 2.15131,-0.131257 3.23091,-0.405643 2.52149,-0.642987 4.76237,-1.999079 6.48037,-3.922131 l 0.0415,-0.04645 -2.51048,-2.183631 -0.0415,0.04643 z"
           fill="#59595c"
           id="path23"
           style="stroke-width:0.0572123" />
        <path
           d="m 331.61788,15.534197 v -0.0617 h -3.11497 v 22.258557 h -4.52889 c -5.02467,0 -9.11234,-4.25087 -9.11234,-9.476293 V 15.472495 h -3.17376 v 12.782264 c 0,7.048117 5.51393,12.782262 12.29086,12.782262 h 7.70314 V 15.534197 Z"
           fill="#59595c"
           id="path25"
           style="stroke-width:0.0557136" />
      </g>
      <path
         style="fill:#9dab3a;fill-opacity:1;stroke:url(#linearGradient1);stroke-width:0.125;stroke-dasharray:none"
         d="M 230.93469,79.664542 C 229.642,79.443436 227.75355,79.047835 226.7381,78.785433 212.16733,75.02014 200.66443,63.249872 197.62381,48.99442 c -1.05575,-4.949696 -1.12669,-9.24329 -0.24015,-14.534174 2.46277,-14.697837 14.28732,-27.2302591 29.3587,-31.1162496 5.07422,-1.308335 5.93859,-1.3562674 24.45767,-1.3562674 h 16.89232 v 4.910727 4.910727 l -17.17982,0.08978 c -16.40212,0.08572 -17.27608,0.110918 -19.30632,0.556611 -6.32921,1.389443 -11.06418,3.840563 -15.36893,7.955939 -4.76499,4.555361 -7.64613,9.939702 -8.70401,16.266279 -0.57089,3.414175 -0.36412,7.731703 0.53933,11.261771 1.22087,4.770338 3.67236,9.132059 7.17744,12.77024 2.6,2.698721 5.20023,4.608846 8.40981,6.17784 3.04595,1.488999 4.66531,2.054407 7.84802,2.740159 2.14026,0.461145 2.87366,0.482786 19.29274,0.569315 l 17.06791,0.08995 V 45.874501 21.461931 h 5.14835 5.14835 v 29.323221 29.32322 l -22.4401,-0.02093 c -20.50972,-0.01912 -22.64228,-0.05548 -24.79043,-0.42292 z"
         id="path4" />
    </g>
  </g>
  <metadata
     id="metadata1">
    <rdf:RDF>
      <cc:Work
         rdf:about="">
        <dc:title>Aubyn Architecture — Full Lockup (outlined)</dc:title>
      </cc:Work>
    </rdf:RDF>
  </metadata>
</svg>
